# xmcd
#
# Track frame offsets:
#	150
#	12851
#	24421
#	35846
#	47495
#	60384
#	72912
#	86563
#	99797
#	111960
#	124716
#	138976
#	151256
#	164850
#	182003
#	190504
#	203290
#	216620
#	228814
#	240712
#	253639
#	267260
#	281557
#	298464
#	310372
#
# Disc length: 4357 seconds
#
# Revision: 1
# Processed by: cddbd v1.4PL0 Copyright (c) Steve Scherf et al.
# Submitted via: CDmax 2.0
#
DISCID=64110319
DTITLE=Lightnin' Hopkins - Classic Sides 1946-1951, CD #5
DYEAR=2002
DGENRE=Blues
TTITLE0=New York Boogie
TTITLE1=You Caused My Heart To Weep
TTITLE2=I Wonder Why
TTITLE3=Papa Bones Boogie
TTITLE4=No Good Woman
TTITLE5=Lightnin's Gone Again
TTITLE6=Dirty House
TTITLE7=Bald Headed Woman
TTITLE8=Everything Happens To Me
TTITLE9=Freight Train Blues
TTITLE10=I've Been A Bad Man
TTITLE11=New Worried Life Blues
TTITLE12=One Kind Of Favor
TTITLE13=Broken Hearted Blues
TTITLE14=Worried Blues
TTITLE15=Don't Think I'm Crazy
TTITLE16=Down To The River
TTITLE17=Contrary Mary
TTITLE18=I'm Begging You
TTITLE19=Why Did You Get Mad At Me
TTITLE20=Everybody's Down On Me
TTITLE21=Sad News From Korea
TTITLE22=Let Me Fly Your Kite
TTITLE23=Gone With The Wind
TTITLE24=She's Almost Dead
EXTD=
EXTT0=
EXTT1=
EXTT2=
EXTT3=
EXTT4=
EXTT5=
EXTT6=
EXTT7=
EXTT8=
EXTT9=
EXTT10=
EXTT11=
EXTT12=
EXTT13=
EXTT14=
EXTT15=
EXTT16=
EXTT17=
EXTT18=
EXTT19=
EXTT20=
EXTT21=
EXTT22=
EXTT23=
EXTT24=
PLAYORDER=
